<svg width="475" height="220" xmlns="http://www.w3.org/2000/svg" xmlns:xlink="http://www.w3.org/1999/xlink" overflow="hidden"><defs><clipPath id="clip0"><rect x="1229" y="621" width="475" height="220"/></clipPath><clipPath id="clip1"><rect x="1483" y="621" width="221" height="221"/></clipPath><clipPath id="clip2"><rect x="1483" y="621" width="221" height="221"/></clipPath><clipPath id="clip3"><rect x="1483" y="621" width="221" height="221"/></clipPath><clipPath id="clip4"><rect x="1228" y="621" width="221" height="221"/></clipPath><clipPath id="clip5"><rect x="1228" y="621" width="221" height="221"/></clipPath><clipPath id="clip6"><rect x="1228" y="621" width="221" height="221"/></clipPath></defs><g clip-path="url(#clip0)" transform="translate(-1229 -621)"><g clip-path="url(#clip1)"><g clip-path="url(#clip2)"><g clip-path="url(#clip3)"><path d="M1691.67 732.052C1691.67 785.733 1648.15 829.251 1594.47 829.251 1540.79 829.251 1497.27 785.733 1497.27 732.052 1497.27 678.371 1540.79 634.853 1594.47 634.853 1648.15 634.853 1691.67 678.371 1691.67 732.052Z" fill="#FFFFFF"/><path d="M1593.8 621C1624.7 621 1650.76 631.605 1671.98 652.821 1693.32 674.168 1704 700.228 1704 731 1704 761.907 1693.52 787.636 1672.56 808.193 1650.3 830.065 1624.05 841 1593.8 841 1564.07 841 1538.28 830.193 1516.41 808.585 1494.81 786.976 1484 761.12 1484 731 1484 700.884 1494.81 674.825 1516.41 652.825 1537.63 631.605 1563.42 621 1593.8 621ZM1594.2 640.841C1569.18 640.841 1548.04 649.617 1530.75 667.162 1512.81 685.498 1503.84 706.78 1503.84 731.004 1503.84 755.362 1512.74 776.447 1530.55 794.247 1548.36 812.06 1569.57 820.96 1594.19 820.96 1618.67 820.96 1640.02 811.998 1658.23 794.051 1675.51 777.42 1684.16 756.403 1684.16 730.997 1684.16 705.985 1675.38 684.711 1657.84 667.159 1640.29 649.614 1619.08 640.841 1594.2 640.841ZM1623.66 703.696 1623.66 748.676 1611.09 748.676 1611.09 802.101 1576.91 802.101 1576.91 748.679 1564.34 748.679 1564.34 703.696C1564.34 701.73 1565.03 700.063 1566.4 698.688 1567.78 697.316 1569.45 696.625 1571.41 696.625L1616.59 696.625C1618.43 696.625 1620.07 697.313 1621.5 698.688 1622.94 700.063 1623.66 701.733 1623.66 703.696ZM1578.68 675.412C1578.68 665.072 1583.78 659.896 1594 659.896 1604.22 659.896 1609.32 665.065 1609.32 675.412 1609.32 685.625 1604.21 690.733 1594 690.733 1583.79 690.733 1578.68 685.625 1578.68 675.412Z"/></g></g></g><g clip-path="url(#clip4)"><g clip-path="url(#clip5)"><g clip-path="url(#clip6)"><path d="M1439.1 731.004C1439.1 785.748 1394.72 830.127 1339.98 830.127 1285.23 830.127 1240.86 785.748 1240.86 731.004 1240.86 676.259 1285.23 631.88 1339.98 631.88 1394.72 631.88 1439.1 676.259 1439.1 731.004Z" fill="#FFFFFF"/><path d="M1338.8 621C1369.57 621 1395.76 631.742 1417.37 653.216 1427.71 663.56 1435.57 675.381 1440.94 688.671 1446.3 701.964 1449 716.071 1449 731 1449 746.06 1446.34 760.171 1441.04 773.326 1435.74 786.485 1427.91 798.11 1417.57 808.193 1406.84 818.797 1394.66 826.92 1381.03 832.551 1367.42 838.181 1353.34 840.997 1338.8 840.997 1324.27 840.997 1310.36 838.219 1297.06 832.647 1283.77 827.085 1271.86 819.031 1261.31 808.492 1250.77 797.952 1242.75 786.065 1237.25 772.838 1231.75 759.61 1229 745.668 1229 731 1229 716.463 1231.78 702.486 1237.35 689.063 1242.91 675.639 1251 663.625 1261.6 653.017 1282.56 631.677 1308.29 621 1338.8 621ZM1339.2 640.841C1314.05 640.841 1292.9 649.617 1275.75 667.162 1267.1 675.938 1260.46 685.79 1255.81 696.725 1251.15 707.66 1248.83 719.086 1248.83 731.004 1248.83 742.791 1251.15 754.152 1255.81 765.08 1260.46 776.021 1267.1 785.777 1275.75 794.353 1284.39 802.933 1294.14 809.475 1305.02 813.999 1315.88 818.516 1327.28 820.774 1339.2 820.774 1350.98 820.774 1362.4 818.488 1373.48 813.902 1384.54 809.313 1394.52 802.706 1403.43 794.065 1420.58 777.303 1429.16 756.286 1429.16 731.007 1429.16 718.828 1426.93 707.305 1422.48 696.436 1418.03 685.567 1411.54 675.88 1403.04 667.362 1385.35 649.683 1364.08 640.841 1339.2 640.841ZM1337.82 712.737 1323.08 720.399C1321.51 717.13 1319.58 714.834 1317.29 713.524 1315 712.218 1312.87 711.561 1310.9 711.561 1301.08 711.561 1296.17 718.041 1296.17 731.007 1296.17 736.899 1297.41 741.608 1299.9 745.146 1302.39 748.683 1306.05 750.453 1310.9 750.453 1317.32 750.453 1321.84 747.308 1324.46 741.024L1338.01 747.899C1335.13 753.272 1331.13 757.493 1326.03 760.57 1320.93 763.65 1315.29 765.186 1309.13 765.186 1299.31 765.186 1291.39 762.178 1285.36 756.149 1279.34 750.126 1276.33 741.746 1276.33 731.01 1276.33 720.533 1279.38 712.221 1285.46 706.065 1291.55 699.911 1299.25 696.831 1308.55 696.831 1322.17 696.825 1331.92 702.129 1337.82 712.737ZM1401.26 712.737 1386.73 720.399C1385.16 717.13 1383.22 714.834 1380.93 713.524 1378.63 712.218 1376.44 711.561 1374.35 711.561 1364.53 711.561 1359.61 718.041 1359.61 731.007 1359.61 736.899 1360.86 741.608 1363.35 745.146 1365.83 748.683 1369.5 750.453 1374.35 750.453 1380.76 750.453 1385.28 747.308 1387.9 741.024L1401.65 747.899C1398.64 753.272 1394.58 757.493 1389.48 760.57 1384.37 763.65 1378.8 765.186 1372.78 765.186 1362.83 765.186 1354.87 762.178 1348.92 756.149 1342.95 750.126 1339.98 741.746 1339.98 731.01 1339.98 720.533 1343.02 712.221 1349.11 706.065 1355.2 699.911 1362.89 696.831 1372.19 696.831 1385.81 696.825 1395.51 702.129 1401.26 712.737Z"/></g></g></g></g></svg>