<?xml version="1.0" encoding="UTF-8" standalone="no"?>
<!-- Generator: Adobe Illustrator 24.2.0, SVG Export Plug-In . SVG Version: 6.00 Build 0)  -->

<svg
   version="1.1"
   id="Ebene_1"
   x="0px"
   y="0px"
   viewBox="0 0 136.1 155.9"
   style="enable-background:new 0 0 136.1 155.9;"
   xml:space="preserve"
   sodipodi:docname="Code_for_Niederrhein_LOGO_Silkscreen_gespiegelt.svg"
   inkscape:version="1.4.2 (f4327f4, 2025-05-13)"
   xmlns:inkscape="http://www.inkscape.org/namespaces/inkscape"
   xmlns:sodipodi="http://sodipodi.sourceforge.net/DTD/sodipodi-0.dtd"
   xmlns:xlink="http://www.w3.org/1999/xlink"
   xmlns="http://www.w3.org/2000/svg"
   xmlns:svg="http://www.w3.org/2000/svg"><sodipodi:namedview
   id="namedview1"
   pagecolor="#ffffff"
   bordercolor="#000000"
   borderopacity="0.25"
   inkscape:showpageshadow="2"
   inkscape:pageopacity="0.0"
   inkscape:pagecheckerboard="0"
   inkscape:deskcolor="#d1d1d1"
   inkscape:zoom="5.1763953"
   inkscape:cx="68.000989"
   inkscape:cy="167.00811"
   inkscape:window-width="1920"
   inkscape:window-height="1009"
   inkscape:window-x="-8"
   inkscape:window-y="-8"
   inkscape:window-maximized="1"
   inkscape:current-layer="Ebene_1" /><defs
   id="defs129">
	<defs
   id="defs27">
		<rect
   id="SVGID_5_"
   x="5.5"
   y="6"
   width="125"
   height="144" />
	</defs>
	<clipPath
   id="SVGID_6_">
		<use
   xlink:href="#SVGID_5_"
   style="overflow:visible;"
   id="use27" />
	</clipPath>
	
	
	
	
	
	
	
	
	
	
	
	
	
	
	
	
	
	
	
	
	
	
	
	
	
	
	
	
	
	
	
	
	
	
	
	
	
	
	
	
	
	
	
	
	
	
	
	
	
	
	
	
	
	
	
	
	
	
	
	
	
	
	
	
	
	
	
	
	
	
	
	
	
	
	
	
	
	
	
	
	
	
	
	
	
	
	
	
	
	
	
	
	
	
	
	
	
	
	
	
	
		
	
	
		
	
		
	
		

	<defs
   id="defs2">
		<rect
   id="SVGID_1_"
   x="5.5"
   y="6"
   width="125"
   height="144" />
	</defs>
	<clipPath
   id="SVGID_2_">
		<use
   xlink:href="#SVGID_1_"
   style="overflow:visible;"
   id="use2" />
	</clipPath>
	
	
	
	
	
	
	
	
	
	
	
	
	
	
	
	
	
	
</defs>
<style
   type="text/css"
   id="style1">
	.st0{fill:#5DB77A;}
	.st1{fill:none;stroke:#FFFFFF;stroke-width:2;stroke-miterlimit:10;}
	.st2{fill:none;stroke:#FFFFFF;stroke-miterlimit:10;}
	.st3{clip-path:url(#SVGID_2_);fill:#FFFFFF;}
	.st4{clip-path:url(#SVGID_2_);fill:none;stroke:#FFFFFF;stroke-miterlimit:10;}
	.st5{fill:#FFFFFF;}
	.st6{clip-path:url(#SVGID_4_);fill:#FFFFFF;}
	.st7{clip-path:url(#SVGID_6_);fill:none;stroke:#FFFFFF;stroke-width:2;stroke-miterlimit:10;}
	.st8{clip-path:url(#SVGID_6_);fill:none;stroke:#FFFFFF;stroke-miterlimit:10;}
	.st9{clip-path:url(#SVGID_6_);fill:#FFFFFF;}
</style>
<polygon
   class="st0"
   points="68,0 0.4,39 0.4,116.9 68,155.9 135.7,116.9 135.7,39 "
   id="polygon1"
   style="display:none"
   transform="matrix(-1,0,0,1,136.1,0)" />
<polygon
   class="st1"
   points="68,10.3 126.5,44.1 126.5,111.8 68,145.6 9.5,111.8 9.5,44.1 "
   id="polygon2"
   style="display:inline"
   transform="matrix(-1,0,0,1,136.1,0)" />
<rect
   x="-101.2"
   y="108.8"
   class="st2"
   width="65.800003"
   height="13.4"
   id="rect2"
   transform="scale(-1,1)" />
<path
   class="st3"
   d="M 65.9,29.1 C 65.7,29 65.6,28.9 65.4,28.9 65.1,28.9 65,29.1 65,29.5 v 0.2 h 1.2 v 0.5 H 65 v 2.6 h -0.5 v -2.6 h -0.9 v -0.5 h 0.9 v -0.2 c 0,-0.7 0.4,-1 0.9,-1 0.3,0 0.5,0.1 0.6,0.2 z"
   clip-path="url(#SVGID_2_)"
   id="path2"
   transform="matrix(-1,0,0,1,136.1,0)" /><path
   class="st3"
   d="m 68.3,29.6 c 0.9,0 1.5,0.7 1.5,1.6 0,0.9 -0.6,1.6 -1.5,1.6 -0.9,0 -1.5,-0.7 -1.5,-1.6 0,-0.9 0.6,-1.6 1.5,-1.6 m 0,2.7 c 0.6,0 1,-0.5 1,-1.1 0,-0.6 -0.4,-1.1 -1,-1.1 -0.6,0 -1,0.5 -1,1.1 0,0.6 0.4,1.1 1,1.1"
   clip-path="url(#SVGID_2_)"
   id="path3"
   transform="matrix(-1,0,0,1,136.1,0)" /><path
   class="st3"
   d="m 72.7,30.6 c 0,-0.3 -0.2,-0.6 -0.6,-0.6 -0.5,0 -1,0.5 -1,1.5 v 1.1 h -0.5 v -3 h 0.5 v 0.6 c 0.2,-0.4 0.6,-0.6 1.1,-0.6 0.6,0 1,0.4 1,1 z"
   clip-path="url(#SVGID_2_)"
   id="path4"
   transform="matrix(-1,0,0,1,136.1,0)" /><polygon
   class="st3"
   points="64.9,26 65,26 65.1,26 65.1,19.5 64.3,19.5 64.3,19.6 64.3,26 "
   clip-path="url(#SVGID_2_)"
   id="polygon4"
   transform="matrix(-1,0,0,1,136.1,0)" /><path
   class="st3"
   d="m 67.5,26.6 c 0.1,0 0.1,-0.1 0.1,-0.1 v -7.6 c 0,-0.1 -0.1,-0.1 -0.1,-0.1 H 65 c -0.1,0 -0.1,0 -0.1,0.1 v 0.1 0.5 c 0,0.1 0,0.1 0.1,0.1 h 1.7 c 0.1,0 0.1,0 0.1,0.1 v 6 c 0,0.1 -0.1,0.1 -0.1,0.1 H 65 c -0.1,0 -0.1,0 -0.1,0 v 0.2 0.5 c 0,0.1 0,0.1 0.1,0.1 z"
   clip-path="url(#SVGID_2_)"
   id="path5"
   transform="matrix(-1,0,0,1,136.1,0)" /><polygon
   class="st3"
   points="69.4,26 69.5,26 69.5,19.5 68.7,19.5 68.7,19.6 68.7,26 "
   clip-path="url(#SVGID_2_)"
   id="polygon5"
   transform="matrix(-1,0,0,1,136.1,0)" /><path
   class="st3"
   d="m 69.4,26.6 v -0.8 c 1.1,0 1.9,-1.4 1.9,-3.1 0,-1.7 -0.8,-3.1 -1.9,-3.1 v -0.8 c 1.5,0 2.7,1.7 2.7,3.9 0,2.1 -1.2,3.9 -2.7,3.9"
   clip-path="url(#SVGID_2_)"
   id="path6"
   transform="matrix(-1,0,0,1,136.1,0)" /><path
   class="st3"
   d="m 61,24.1 v 1.1 0.4 c 0,0.6 0.4,1 1,1 h 0.2 0.5 0.6 c 0,0 0.1,-0.1 0.1,-0.1 v -0.6 c 0,-0.1 -0.1,-0.1 -0.1,-0.1 h -0.6 -0.3 -0.2 c -0.3,0 -0.3,-0.1 -0.3,-0.4 v -0.2 -1 -0.6 c 0,-0.6 -0.2,-0.8 -0.6,-0.9 0.3,-0.1 0.6,-0.3 0.6,-0.9 V 21.4 20.3 20 c 0,-0.3 0.1,-0.4 0.3,-0.4 h 0.2 0.3 0.6 c 0,0 0.1,0 0.1,-0.1 v -0.6 c 0,-0.1 -0.1,-0.1 -0.1,-0.1 H 62.8 62.3 62 c -0.6,0 -1,0.4 -1,1 v 0.3 1.3 c 0,0 0,0.3 0,0.4 0,0.3 -0.4,0.5 -0.6,0.5 h -0.3 c -0.1,0 -0.1,0 -0.1,0.1 V 23 c 0,0.1 0,0.1 0.1,0.1 h 0.3 c 0.3,0 0.6,0.2 0.6,0.6 0,0.1 0,0.4 0,0.4"
   clip-path="url(#SVGID_2_)"
   id="path7"
   transform="matrix(-1,0,0,1,136.1,0)" /><path
   class="st3"
   d="m 65,18.8 h -0.3 -0.3 c -0.1,0 -0.1,0 -0.1,0.1 v 0.2 0.4 0.1 h 0.1 0.6 0.1 v -0.1 -0.6 -0.1 z"
   clip-path="url(#SVGID_2_)"
   id="path8"
   transform="matrix(-1,0,0,1,136.1,0)" /><path
   class="st3"
   d="m 64.3,25.9 v 0.3 0.3 c 0,0.1 0,0.1 0.1,0.1 h 0.2 0.4 0.1 V 26.5 25.9 25.8 H 65 Z"
   clip-path="url(#SVGID_2_)"
   id="path9"
   transform="matrix(-1,0,0,1,136.1,0)" /><path
   class="st3"
   d="m 69.4,18.8 h -0.3 -0.3 c -0.1,0 -0.1,0 -0.1,0.1 v 0.2 0.4 0.1 h 0.1 0.6 0.1 v -0.1 -0.6 -0.1 z"
   clip-path="url(#SVGID_2_)"
   id="path10"
   transform="matrix(-1,0,0,1,136.1,0)" /><path
   class="st3"
   d="m 68.7,25.9 v 0.3 0.3 c 0,0.1 0,0.1 0.1,0.1 h 0.2 0.4 0.1 v -0.1 -0.6 -0.1 h -0.1 l -0.7,0.1 z"
   clip-path="url(#SVGID_2_)"
   id="path11"
   transform="matrix(-1,0,0,1,136.1,0)" /><path
   class="st3"
   d="m 73.7,24.1 v 1.1 0.4 c 0,0.6 0.4,1 1,1 h 0.2 0.5 0.6 c 0,0 0.1,-0.1 0.1,-0.1 V 25.9 C 76.1,25.8 76,25.8 76,25.8 h -0.6 -0.3 -0.2 c -0.3,0 -0.3,-0.1 -0.3,-0.4 v -0.2 -1 -0.6 c 0,-0.2 -0.1,-0.4 -0.1,-0.5 h -1.4 c 0.4,0.1 0.5,0.2 0.6,0.6 0,0.2 0,0.4 0,0.4"
   clip-path="url(#SVGID_2_)"
   id="path12"
   transform="matrix(-1,0,0,1,136.1,0)" /><path
   class="st3"
   d="m 73.7,21.8 c -0.1,0.3 -0.3,0.4 -0.6,0.5 h 1.3 c 0.1,-0.2 0.2,-0.3 0.2,-0.6 V 21.3 20.2 20 c 0,-0.3 0.1,-0.4 0.3,-0.4 h 0.2 0.3 0.6 c 0,0 0.1,0 0.1,-0.1 V 18.9 C 76.1,18.8 76,18.8 76,18.8 H 75.5 75 74.7 c -0.6,0 -1,0.4 -1,1 v 0.3 1.3 c 0,0 0,0.3 0,0.4"
   clip-path="url(#SVGID_2_)"
   id="path13"
   transform="matrix(-1,0,0,1,136.1,0)" /><path
   class="st3"
   d="m 73.9,22.8 c 0.2,0.1 0.4,0.2 0.6,0.4 H 76 c 0.1,0 0.1,0 0.1,-0.1 V 22.5 C 76.1,22.4 76,22.4 76,22.4 h -1.5 c -0.2,0.1 -0.4,0.3 -0.6,0.4"
   clip-path="url(#SVGID_2_)"
   id="path14"
   transform="matrix(-1,0,0,1,136.1,0)" /><path
   class="st3"
   d="m 72.8,22.3 c -0.1,0 -0.1,0.1 0,0 L 72.7,23 c 0,0.1 0,0.1 0.1,0.1 h 0.3 1.4 c -0.1,-0.2 -0.3,-0.3 -0.5,-0.4 0.2,-0.1 0.3,-0.2 0.4,-0.4 h -1.3 z"
   clip-path="url(#SVGID_2_)"
   id="path15"
   transform="matrix(-1,0,0,1,136.1,0)" /><path
   class="st4"
   d="m 84.8,37 c 0,0 7.7,-1.2 10.5,2.1 4.1,-2.2 10.4,0.3 10.4,0.3"
   clip-path="url(#SVGID_2_)"
   id="path16"
   style="stroke-width:1.2;stroke-dasharray:none"
   transform="matrix(-1,0,0,1,136.1,0)" /><path
   class="st4"
   d="m 98.2,43.9 c 0,0 6.2,-0.9 8.4,1.7 3.3,-1.8 8.3,0.3 8.3,0.3"
   clip-path="url(#SVGID_2_)"
   id="path17"
   style="stroke-width:1.2;stroke-dasharray:none"
   transform="matrix(-1,0,0,1,136.1,0)" />
<polygon
   class="st5"
   points="44.9,112.2 44.9,119.1 43.6,119.1 39.6,114 39.6,119.1 38.5,119.1 38.5,112.2 39.6,112.2 43.7,117.4 43.7,112.2 "
   id="polygon17"
   transform="matrix(-1,0,0,1,136.1,0)" />
<g
   id="g27"
   transform="matrix(-1,0,0,1,136.1,0)">
	<defs
   id="defs17">
		<rect
   id="SVGID_3_"
   width="136.10001"
   height="155.89999"
   x="0"
   y="0" />
	</defs>
	<clipPath
   id="SVGID_4_">
		<use
   xlink:href="#SVGID_3_"
   style="overflow:visible"
   id="use17" />
	</clipPath>
	<path
   class="st6"
   d="m 46.8,112.8 c -0.1,-0.1 -0.2,-0.3 -0.2,-0.5 0,-0.2 0.1,-0.4 0.2,-0.5 0.1,-0.1 0.3,-0.2 0.5,-0.2 0.2,0 0.4,0.1 0.5,0.2 0.1,0.1 0.2,0.3 0.2,0.5 0,0.2 -0.1,0.4 -0.2,0.5 -0.1,0.1 -0.3,0.2 -0.5,0.2 -0.2,0 -0.4,-0.1 -0.5,-0.2 m 1,6.3 h -1.1 v -5.3 h 1.1 z"
   clip-path="url(#SVGID_4_)"
   id="path18" />
	<path
   class="st6"
   d="m 54.5,117 h -4.2 c 0,0.4 0.2,0.7 0.5,0.9 0.3,0.2 0.7,0.4 1.1,0.4 0.7,0 1.2,-0.2 1.5,-0.6 l 0.6,0.7 c -0.6,0.6 -1.3,0.9 -2.2,0.9 -0.7,0 -1.4,-0.2 -1.9,-0.7 -0.5,-0.5 -0.8,-1.2 -0.8,-2 0,-0.8 0.3,-1.5 0.8,-2 0.5,-0.5 1.2,-0.7 1.9,-0.7 0.7,0 1.3,0.2 1.8,0.7 0.5,0.4 0.8,1 0.8,1.8 v 0.6 z m -4.2,-0.9 h 3 c 0,-0.4 -0.1,-0.8 -0.4,-1 -0.3,-0.2 -0.6,-0.4 -1,-0.4 -0.4,0 -0.8,0.1 -1.1,0.4 -0.3,0.2 -0.5,0.6 -0.5,1"
   clip-path="url(#SVGID_4_)"
   id="path19" />
	<path
   class="st6"
   d="m 56.2,118.5 c -0.5,-0.5 -0.8,-1.2 -0.8,-2 0,-0.8 0.3,-1.5 0.8,-2 0.5,-0.5 1.1,-0.7 1.8,-0.7 0.7,0 1.3,0.3 1.7,0.9 v -2.9 h 1.1 v 7.4 h -1.1 v -0.8 c -0.4,0.6 -1,0.9 -1.8,0.9 -0.6,-0.1 -1.2,-0.3 -1.7,-0.8 m 0.4,-2 c 0,0.5 0.2,0.9 0.5,1.2 0.3,0.3 0.7,0.5 1.1,0.5 0.4,0 0.8,-0.2 1.1,-0.5 0.3,-0.3 0.5,-0.7 0.5,-1.2 0,-0.5 -0.2,-0.9 -0.5,-1.3 -0.3,-0.3 -0.7,-0.5 -1.1,-0.5 -0.4,0 -0.8,0.2 -1.1,0.5 -0.3,0.4 -0.5,0.8 -0.5,1.3"
   clip-path="url(#SVGID_4_)"
   id="path20" />
	<path
   class="st6"
   d="m 67.6,117 h -4.2 c 0,0.4 0.2,0.7 0.5,0.9 0.3,0.2 0.7,0.4 1.1,0.4 0.7,0 1.2,-0.2 1.5,-0.6 l 0.6,0.7 c -0.6,0.6 -1.3,0.9 -2.2,0.9 -0.7,0 -1.4,-0.2 -1.9,-0.7 -0.5,-0.5 -0.8,-1.2 -0.8,-2 0,-0.8 0.3,-1.5 0.8,-2 0.5,-0.5 1.2,-0.7 1.9,-0.7 0.7,0 1.3,0.2 1.8,0.7 0.5,0.4 0.8,1 0.8,1.8 v 0.6 z m -4.2,-0.9 h 3 c 0,-0.4 -0.1,-0.8 -0.4,-1 -0.3,-0.2 -0.6,-0.4 -1,-0.4 -0.4,0 -0.8,0.1 -1.1,0.4 -0.3,0.2 -0.5,0.6 -0.5,1"
   clip-path="url(#SVGID_4_)"
   id="path21" />
	<path
   class="st6"
   d="m 71.7,114.9 c -0.6,0 -1,0.2 -1.3,0.5 -0.3,0.4 -0.4,0.8 -0.4,1.5 v 2.3 h -1.1 v -5.3 H 70 v 1.1 c 0.2,-0.3 0.4,-0.6 0.7,-0.8 0.3,-0.2 0.6,-0.3 1,-0.3 v 1 z"
   clip-path="url(#SVGID_4_)"
   id="path22" />
	<path
   class="st6"
   d="m 75.7,114.9 c -0.6,0 -1,0.2 -1.3,0.5 -0.3,0.4 -0.4,0.8 -0.4,1.5 v 2.3 h -1.1 v -5.3 H 74 v 1.1 c 0.2,-0.3 0.4,-0.6 0.7,-0.8 0.3,-0.2 0.6,-0.3 1,-0.3 v 1 z"
   clip-path="url(#SVGID_4_)"
   id="path23" />
	<path
   class="st6"
   d="m 78,116.3 v 2.9 h -1.1 v -7.4 H 78 v 3.1 c 0.2,-0.3 0.4,-0.6 0.7,-0.8 0.3,-0.2 0.7,-0.3 1,-0.3 0.6,0 1.1,0.2 1.5,0.6 0.4,0.4 0.6,0.9 0.6,1.6 v 3.3 h -1.1 v -2.9 c 0,-1 -0.4,-1.5 -1.2,-1.5 -0.4,0 -0.7,0.1 -1,0.4 -0.4,0.1 -0.5,0.5 -0.5,1"
   clip-path="url(#SVGID_4_)"
   id="path24" />
	<path
   class="st6"
   d="m 88.4,117 h -4.2 c 0,0.4 0.2,0.7 0.5,0.9 0.3,0.2 0.7,0.4 1.1,0.4 0.7,0 1.2,-0.2 1.5,-0.6 l 0.6,0.7 c -0.6,0.6 -1.3,0.9 -2.2,0.9 -0.7,0 -1.4,-0.2 -1.9,-0.7 -0.5,-0.5 -0.8,-1.2 -0.8,-2 0,-0.8 0.3,-1.5 0.8,-2 0.5,-0.5 1.2,-0.7 1.9,-0.7 0.7,0 1.3,0.2 1.8,0.7 0.5,0.4 0.8,1 0.8,1.8 v 0.6 z m -4.2,-0.9 h 3 c 0,-0.4 -0.1,-0.8 -0.4,-1 -0.3,-0.2 -0.6,-0.4 -1,-0.4 -0.4,0 -0.8,0.1 -1.1,0.4 -0.4,0.2 -0.5,0.6 -0.5,1"
   clip-path="url(#SVGID_4_)"
   id="path25" />
	<path
   class="st6"
   d="m 89.7,112.8 c -0.1,-0.1 -0.2,-0.3 -0.2,-0.5 0,-0.2 0.1,-0.4 0.2,-0.5 0.1,-0.1 0.3,-0.2 0.5,-0.2 0.2,0 0.4,0.1 0.5,0.2 0.1,0.1 0.2,0.3 0.2,0.5 0,0.2 -0.1,0.4 -0.2,0.5 -0.1,0.1 -0.3,0.2 -0.5,0.2 -0.2,0 -0.3,-0.1 -0.5,-0.2 m 1.1,6.3 h -1.1 v -5.3 h 1.1 z"
   clip-path="url(#SVGID_4_)"
   id="path26" />
	<path
   class="st6"
   d="m 93.6,116.3 v 2.9 h -1.1 v -5.3 h 1.1 v 1 c 0.2,-0.3 0.4,-0.6 0.7,-0.8 0.3,-0.2 0.7,-0.3 1,-0.3 0.6,0 1.1,0.2 1.5,0.6 0.4,0.4 0.6,0.9 0.6,1.6 v 3.3 h -1.1 v -2.9 c 0,-1 -0.4,-1.5 -1.2,-1.5 -0.4,0 -0.7,0.1 -1,0.4 -0.4,0.1 -0.5,0.5 -0.5,1"
   clip-path="url(#SVGID_4_)"
   id="path27" />
</g>
<path
   class="st7"
   d="m 49.8,104.2 c 0,0 7.7,0.5 10.8,-3.4 3.2,-3.9 1,-3.5 1.2,-9.6 0.2,-6.1 1,-7.9 -3.2,-10.8 -4.1,-2.9 -4.9,-8.5 1.7,-8.3 6.6,0.2 10.3,-1.5 14.6,0 4.2,1.5 3.3,4.9 1.5,7.3 -1.7,2.4 -2.7,1.2 -2.7,6.1 0,4.9 -0.3,10.9 1.4,14.1 1.7,3.2 9.3,2.2 9.3,2.2"
   clip-path="url(#SVGID_6_)"
   id="path28"
   transform="matrix(-1,0,0,1,136.1,0)" /><path
   class="st8"
   d="m 79.3,72.5 c 0,0 6.9,-6 9.7,-11.2 2.8,-5.2 3.4,-9.7 3.4,-9.7"
   clip-path="url(#SVGID_6_)"
   id="path29"
   style="stroke-width:1.2;stroke-dasharray:none"
   transform="matrix(-1,0,0,1,136.1,0)" /><path
   class="st8"
   d="m 75.2,69 c 0,0 5.3,-7.4 6.9,-13.1 1.6,-5.7 1.1,-10.2 1.1,-10.2"
   clip-path="url(#SVGID_6_)"
   id="path30"
   style="stroke-width:1.2;stroke-dasharray:none"
   transform="matrix(-1,0,0,1,136.1,0)" /><path
   class="st9"
   d="m 53.3,45.2 c 0,0 0.3,1.6 -0.3,2.6 -0.6,0.9 -2.1,0.9 -2.1,0.9 0,0 -0.3,-1.2 0.3,-2.2 0.6,-1 2.1,-1.3 2.1,-1.3"
   clip-path="url(#SVGID_6_)"
   id="path31"
   transform="matrix(-1,0,0,1,136.1,0)" /><path
   class="st9"
   d="m 36.1,51.7 c 0,0 1.6,0.1 2.4,0.9 0.8,0.8 0.4,2.3 0.4,2.3 0,0 -1.2,0 -2,-0.8 -0.9,-1 -0.8,-2.4 -0.8,-2.4"
   clip-path="url(#SVGID_6_)"
   id="path32"
   transform="matrix(-1,0,0,1,136.1,0)" /><path
   class="st9"
   d="m 37.1,55.8 c 0,0 1.6,0.1 2.4,0.9 0.8,0.8 0.4,2.3 0.4,2.3 0,0 -1.2,0 -2,-0.8 -0.8,-0.9 -0.8,-2.4 -0.8,-2.4"
   clip-path="url(#SVGID_6_)"
   id="path33"
   transform="matrix(-1,0,0,1,136.1,0)" /><path
   class="st9"
   d="m 38.9,59.9 c 0,0 1.6,-0.1 2.5,0.7 0.8,0.7 0.6,2.2 0.6,2.2 0,0 -1.2,0.2 -2.1,-0.6 -1,-0.8 -1,-2.3 -1,-2.3"
   clip-path="url(#SVGID_6_)"
   id="path34"
   transform="matrix(-1,0,0,1,136.1,0)" /><path
   class="st9"
   d="m 47.1,57.3 c 0,0 1.6,-0.1 2.5,0.7 0.8,0.7 0.6,2.2 0.6,2.2 0,0 -1.2,0.2 -2.1,-0.6 -0.9,-0.8 -1,-2.3 -1,-2.3"
   clip-path="url(#SVGID_6_)"
   id="path35"
   transform="matrix(-1,0,0,1,136.1,0)" /><path
   class="st9"
   d="m 56.1,55.7 c 0,0 1.6,0.2 2.4,1 0.7,0.8 0.3,2.3 0.3,2.3 0,0 -1.2,0 -2,-0.9 -0.9,-1 -0.7,-2.4 -0.7,-2.4"
   clip-path="url(#SVGID_6_)"
   id="path36"
   transform="matrix(-1,0,0,1,136.1,0)" /><path
   class="st9"
   d="m 56.5,59.1 c 0,0 1.6,0.2 2.4,1 0.7,0.8 0.3,2.3 0.3,2.3 0,0 -1.2,0 -2,-0.9 -0.8,-0.9 -0.7,-2.4 -0.7,-2.4"
   clip-path="url(#SVGID_6_)"
   id="path37"
   transform="matrix(-1,0,0,1,136.1,0)" /><path
   class="st9"
   d="m 45.3,45.7 c 0,0 1.6,0.4 2.2,1.3 0.6,0.9 0,2.3 0,2.3 0,0 -1.2,-0.2 -1.9,-1.2 -0.6,-1 -0.3,-2.4 -0.3,-2.4"
   clip-path="url(#SVGID_6_)"
   id="path38"
   transform="matrix(-1,0,0,1,136.1,0)" /><path
   class="st9"
   d="m 45.7,49.9 c 0,0 1.6,0.4 2.2,1.3 0.6,0.9 0,2.3 0,2.3 0,0 -1.2,-0.2 -1.9,-1.2 -0.7,-0.9 -0.3,-2.4 -0.3,-2.4"
   clip-path="url(#SVGID_6_)"
   id="path39"
   transform="matrix(-1,0,0,1,136.1,0)" /><path
   class="st9"
   d="m 46.3,53.7 c 0,0 1.6,0.2 2.3,1.1 0.7,0.9 0.2,2.3 0.2,2.3 0,0 -1.2,-0.1 -2,-1 -0.7,-1 -0.5,-2.4 -0.5,-2.4"
   clip-path="url(#SVGID_6_)"
   id="path40"
   transform="matrix(-1,0,0,1,136.1,0)" /><path
   class="st9"
   d="m 40.4,63.6 c 0,0 1.6,-0.4 2.6,0.1 1,0.5 1.1,2 1.1,2 0,0 -1.1,0.4 -2.2,-0.1 -1.1,-0.6 -1.5,-2 -1.5,-2"
   clip-path="url(#SVGID_6_)"
   id="path41"
   transform="matrix(-1,0,0,1,136.1,0)" /><path
   class="st9"
   d="m 42.5,66.8 c 0,0 1.6,-0.4 2.6,0.1 1,0.5 1.1,2 1.1,2 0,0 -1.2,0.4 -2.2,-0.1 -1.1,-0.6 -1.5,-2 -1.5,-2"
   clip-path="url(#SVGID_6_)"
   id="path42"
   transform="matrix(-1,0,0,1,136.1,0)" /><path
   class="st9"
   d="m 45.2,69.8 c 0,0 1.5,-0.6 2.6,-0.2 1,0.4 1.3,1.9 1.3,1.9 0,0 -1.1,0.5 -2.2,0.1 -1.2,-0.5 -1.7,-1.8 -1.7,-1.8"
   clip-path="url(#SVGID_6_)"
   id="path43"
   transform="matrix(-1,0,0,1,136.1,0)" /><path
   class="st9"
   d="m 47.4,72.4 c 0,0 1.4,-0.9 2.5,-0.7 1.1,0.2 1.6,1.6 1.6,1.6 0,0 -1,0.7 -2.1,0.5 -1.2,-0.1 -2,-1.4 -2,-1.4"
   clip-path="url(#SVGID_6_)"
   id="path44"
   transform="matrix(-1,0,0,1,136.1,0)" /><path
   class="st9"
   d="m 38.7,47.1 c 0,0 1.5,0.8 1.8,1.8 0.4,1 -0.6,2.2 -0.6,2.2 0,0 -1.1,-0.5 -1.5,-1.6 -0.3,-1.1 0.3,-2.4 0.3,-2.4"
   clip-path="url(#SVGID_6_)"
   id="path45"
   transform="matrix(-1,0,0,1,136.1,0)" /><path
   class="st9"
   d="m 48.5,40.9 c 0,0 1.4,0.9 1.6,2 0.3,1.1 -0.8,2.1 -0.8,2.1 0,0 -1.1,-0.6 -1.4,-1.7 -0.2,-1.2 0.6,-2.4 0.6,-2.4"
   clip-path="url(#SVGID_6_)"
   id="path46"
   transform="matrix(-1,0,0,1,136.1,0)" /><path
   class="st9"
   d="m 60.2,39.2 c 0,0 1.2,1.1 1.3,2.2 0.1,1.1 -1.1,2 -1.1,2 0,0 -1,-0.7 -1.1,-1.9 -0.1,-1.2 0.9,-2.3 0.9,-2.3"
   clip-path="url(#SVGID_6_)"
   id="path47"
   transform="matrix(-1,0,0,1,136.1,0)" /><path
   class="st9"
   d="m 70.8,39.3 c 0,0 1.5,0.7 1.9,1.7 0.4,1 -0.5,2.2 -0.5,2.2 0,0 -1.1,-0.4 -1.6,-1.5 -0.4,-1.1 0.2,-2.4 0.2,-2.4"
   clip-path="url(#SVGID_6_)"
   id="path48"
   transform="matrix(-1,0,0,1,136.1,0)" /><path
   class="st9"
   d="m 83.5,40.9 c 0,0 0.9,1.4 0.8,2.5 -0.2,1.1 -1.5,1.7 -1.5,1.7 0,0 -0.8,-0.9 -0.6,-2.1 0.1,-1.3 1.3,-2.1 1.3,-2.1"
   clip-path="url(#SVGID_6_)"
   id="path49"
   transform="matrix(-1,0,0,1,136.1,0)" /><path
   class="st9"
   d="m 91.8,46.9 c 0,0 1.4,0.9 1.6,2 0.3,1.1 -0.8,2.1 -0.8,2.1 0,0 -1.1,-0.6 -1.4,-1.7 -0.2,-1.1 0.6,-2.4 0.6,-2.4"
   clip-path="url(#SVGID_6_)"
   id="path50"
   transform="matrix(-1,0,0,1,136.1,0)" /><path
   class="st9"
   d="m 53.4,49 c 0,0 0.3,1.6 -0.3,2.6 -0.6,0.9 -2.1,0.9 -2.1,0.9 0,0 -0.3,-1.2 0.3,-2.2 0.6,-1.1 2.1,-1.3 2.1,-1.3"
   clip-path="url(#SVGID_6_)"
   id="path51"
   transform="matrix(-1,0,0,1,136.1,0)" /><path
   class="st9"
   d="m 53.9,52.4 c 0,0 0.3,1.6 -0.3,2.6 -0.6,0.9 -2.1,0.9 -2.1,0.9 0,0 -0.3,-1.2 0.3,-2.2 0.6,-1 2.1,-1.3 2.1,-1.3"
   clip-path="url(#SVGID_6_)"
   id="path52"
   transform="matrix(-1,0,0,1,136.1,0)" /><path
   class="st9"
   d="m 44.1,49.5 c 0,0 0.6,1.5 0.2,2.6 -0.4,1 -1.9,1.3 -1.9,1.3 0,0 -0.5,-1.1 -0.1,-2.2 0.4,-1.2 1.8,-1.7 1.8,-1.7"
   clip-path="url(#SVGID_6_)"
   id="path53"
   transform="matrix(-1,0,0,1,136.1,0)" /><path
   class="st9"
   d="m 44.9,53.1 c 0,0 0.6,1.5 0.2,2.6 -0.4,1 -1.9,1.3 -1.9,1.3 0,0 -0.5,-1.1 -0.1,-2.2 0.4,-1.2 1.8,-1.7 1.8,-1.7"
   clip-path="url(#SVGID_6_)"
   id="path54"
   transform="matrix(-1,0,0,1,136.1,0)" /><path
   class="st9"
   d="m 46.1,56.4 c 0,0 0.6,1.5 0.2,2.6 -0.4,1 -1.9,1.3 -1.9,1.3 0,0 -0.5,-1.1 -0.1,-2.2 0.4,-1.2 1.8,-1.7 1.8,-1.7"
   clip-path="url(#SVGID_6_)"
   id="path55"
   transform="matrix(-1,0,0,1,136.1,0)" /><path
   class="st9"
   d="m 54.4,55.3 c 0,0 0.7,1.5 0.4,2.5 -0.3,1.2 -1.8,1.5 -1.8,1.5 0,0 -0.6,-1 -0.3,-2.2 0.4,-1.1 1.7,-1.8 1.7,-1.8"
   clip-path="url(#SVGID_6_)"
   id="path56"
   transform="matrix(-1,0,0,1,136.1,0)" /><path
   class="st9"
   d="m 55.3,58.7 c 0,0 0.9,1.4 0.7,2.5 -0.2,1.1 -1.6,1.6 -1.6,1.6 0,0 -0.7,-1 -0.5,-2.2 0.1,-1.1 1.4,-1.9 1.4,-1.9"
   clip-path="url(#SVGID_6_)"
   id="path57"
   transform="matrix(-1,0,0,1,136.1,0)" /><path
   class="st9"
   d="m 56.5,61.6 c 0,0 1.1,1.2 1.1,2.3 0,1.1 -1.3,1.9 -1.3,1.9 0,0 -0.9,-0.8 -0.9,-2 0.1,-1.2 1.1,-2.2 1.1,-2.2"
   clip-path="url(#SVGID_6_)"
   id="path58"
   transform="matrix(-1,0,0,1,136.1,0)" /><path
   class="st9"
   d="m 58.8,63.8 c 0,0 0.9,1.4 0.7,2.5 -0.2,1.1 -1.6,1.6 -1.6,1.6 0,0 -0.7,-1 -0.5,-2.1 0.2,-1.2 1.4,-2 1.4,-2"
   clip-path="url(#SVGID_6_)"
   id="path59"
   transform="matrix(-1,0,0,1,136.1,0)" /><path
   class="st9"
   d="m 47.7,59.7 c 0,0 0.7,1.5 0.4,2.5 -0.3,1.1 -1.8,1.4 -1.8,1.4 0,0 -0.6,-1 -0.3,-2.2 0.4,-1 1.7,-1.7 1.7,-1.7"
   clip-path="url(#SVGID_6_)"
   id="path60"
   transform="matrix(-1,0,0,1,136.1,0)" /><path
   class="st9"
   d="m 49.7,62.1 c 0,0 0.7,1.5 0.4,2.5 -0.3,1.1 -1.8,1.4 -1.8,1.4 0,0 -0.6,-1 -0.3,-2.2 0.4,-1 1.7,-1.7 1.7,-1.7"
   clip-path="url(#SVGID_6_)"
   id="path61"
   transform="matrix(-1,0,0,1,136.1,0)" /><path
   class="st9"
   d="m 52,64.6 c 0,0 0.7,1.5 0.4,2.5 -0.3,1.1 -1.8,1.4 -1.8,1.4 0,0 -0.6,-1 -0.3,-2.2 0.4,-1 1.7,-1.7 1.7,-1.7"
   clip-path="url(#SVGID_6_)"
   id="path62"
   transform="matrix(-1,0,0,1,136.1,0)" /><path
   class="st9"
   d="m 54.2,66.6 c 0,0 0.7,1.5 0.4,2.5 -0.3,1.1 -1.8,1.4 -1.8,1.4 0,0 -0.6,-1 -0.3,-2.2 0.4,-1 1.7,-1.7 1.7,-1.7"
   clip-path="url(#SVGID_6_)"
   id="path63"
   transform="matrix(-1,0,0,1,136.1,0)" /><path
   class="st8"
   d="m 70.8,68.5 c 0,0 1.8,-8.6 1.7,-14.5 C 72.4,48.1 72,43.9 72,43.9"
   clip-path="url(#SVGID_6_)"
   id="path64"
   style="stroke-width:1.2;stroke-dasharray:none"
   transform="matrix(-1,0,0,1,136.1,0)" /><path
   class="st8"
   d="m 53.1,72.6 c 0,0 -6.9,-6 -9.7,-11.2 C 40.6,56.2 40,51.7 40,51.7"
   clip-path="url(#SVGID_6_)"
   id="path65"
   style="stroke-width:1.2;stroke-dasharray:none"
   transform="matrix(-1,0,0,1,136.1,0)" /><path
   class="st8"
   d="m 57.1,69.1 c 0,0 -5.3,-7.4 -6.9,-13.1 -1.6,-5.7 -1.1,-10.2 -1.1,-10.2"
   clip-path="url(#SVGID_6_)"
   id="path66"
   style="stroke-width:1.2;stroke-dasharray:none"
   transform="matrix(-1,0,0,1,136.1,0)" /><path
   class="st9"
   d="m 56.9,43.6 c 0,0 1.5,0.6 2,1.7 0.5,1 -0.4,2.2 -0.4,2.2 0,0 -1.2,-0.4 -1.6,-1.5 -0.6,-1.1 0,-2.4 0,-2.4"
   clip-path="url(#SVGID_6_)"
   id="path67"
   transform="matrix(-1,0,0,1,136.1,0)" /><path
   class="st9"
   d="m 56.5,47.8 c 0,0 1.5,0.6 2,1.7 0.5,1 -0.4,2.2 -0.4,2.2 0,0 -1.2,-0.4 -1.6,-1.5 -0.6,-1.1 0,-2.4 0,-2.4"
   clip-path="url(#SVGID_6_)"
   id="path68"
   transform="matrix(-1,0,0,1,136.1,0)" /><path
   class="st9"
   d="m 55.9,51.7 c 0,0 1.6,0.4 2.2,1.4 0.6,0.9 -0.1,2.3 -0.1,2.3 0,0 -1.2,-0.2 -1.8,-1.2 -0.6,-1.1 -0.3,-2.5 -0.3,-2.5"
   clip-path="url(#SVGID_6_)"
   id="path69"
   transform="matrix(-1,0,0,1,136.1,0)" /><path
   class="st9"
   d="m 64.2,44 c 0,0 -1.6,0.4 -2.2,1.3 -0.6,0.9 0.1,2.3 0.1,2.3 0,0 1.2,-0.2 1.9,-1.2 0.6,-1 0.2,-2.4 0.2,-2.4"
   clip-path="url(#SVGID_6_)"
   id="path70"
   transform="matrix(-1,0,0,1,136.1,0)" /><path
   class="st9"
   d="m 63.9,48.3 c 0,0 -1.6,0.4 -2.2,1.3 -0.6,0.9 0.1,2.3 0.1,2.3 0,0 1.2,-0.2 1.9,-1.2 0.6,-1 0.2,-2.4 0.2,-2.4"
   clip-path="url(#SVGID_6_)"
   id="path71"
   transform="matrix(-1,0,0,1,136.1,0)" /><path
   class="st9"
   d="m 63.9,52.2 c 0,0 -1.6,0.2 -2.4,1 -0.7,0.8 -0.3,2.3 -0.3,2.3 0,0 1.2,0 2,-0.9 0.8,-0.9 0.7,-2.4 0.7,-2.4"
   clip-path="url(#SVGID_6_)"
   id="path72"
   transform="matrix(-1,0,0,1,136.1,0)" /><path
   class="st9"
   d="m 75.9,43.4 c 0,0 -1.6,0.5 -2.1,1.5 -0.5,1 0.2,2.3 0.2,2.3 0,0 1.2,-0.3 1.8,-1.3 0.6,-1.1 0.1,-2.5 0.1,-2.5"
   clip-path="url(#SVGID_6_)"
   id="path73"
   transform="matrix(-1,0,0,1,136.1,0)" /><path
   class="st9"
   d="m 76,47.7 c 0,0 -1.6,0.5 -2.1,1.5 -0.5,1 0.2,2.3 0.2,2.3 0,0 1.2,-0.3 1.8,-1.3 0.5,-1.1 0.1,-2.5 0.1,-2.5"
   clip-path="url(#SVGID_6_)"
   id="path74"
   transform="matrix(-1,0,0,1,136.1,0)" /><path
   class="st9"
   d="m 76.2,51.6 c 0,0 -1.6,0.3 -2.3,1.2 -0.7,0.9 -0.1,2.3 -0.1,2.3 0,0 1.2,-0.1 2,-1.1 0.7,-0.9 0.4,-2.4 0.4,-2.4"
   clip-path="url(#SVGID_6_)"
   id="path75"
   transform="matrix(-1,0,0,1,136.1,0)" /><path
   class="st9"
   d="m 87.5,45.8 c 0,0 -1.6,0.2 -2.3,1.1 -0.7,0.9 -0.2,2.3 -0.2,2.3 0,0 1.2,-0.1 2,-1 0.7,-0.9 0.5,-2.4 0.5,-2.4"
   clip-path="url(#SVGID_6_)"
   id="path76"
   transform="matrix(-1,0,0,1,136.1,0)" /><path
   class="st9"
   d="m 86.8,50 c 0,0 -1.6,0.2 -2.3,1.1 -0.7,0.9 -0.2,2.3 -0.2,2.3 0,0 1.2,-0.1 2,-1 C 87,51.5 86.8,50 86.8,50"
   clip-path="url(#SVGID_6_)"
   id="path77"
   transform="matrix(-1,0,0,1,136.1,0)" /><path
   class="st9"
   d="m 86.3,53.9 c 0,0 -1.6,0 -2.5,0.8 -0.8,0.8 -0.5,2.2 -0.5,2.2 0,0 1.2,0.1 2.1,-0.7 0.9,-0.8 0.9,-2.3 0.9,-2.3"
   clip-path="url(#SVGID_6_)"
   id="path78"
   transform="matrix(-1,0,0,1,136.1,0)" /><path
   class="st9"
   d="m 96.2,51.8 c 0,0 -1.6,-0.1 -2.5,0.7 -0.8,0.7 -0.6,2.2 -0.6,2.2 0,0 1.2,0.2 2.1,-0.6 1,-0.8 1,-2.3 1,-2.3"
   clip-path="url(#SVGID_6_)"
   id="path79"
   transform="matrix(-1,0,0,1,136.1,0)" /><path
   class="st9"
   d="m 94.8,55.8 c 0,0 -1.6,-0.1 -2.5,0.7 -0.9,0.7 -0.6,2.2 -0.6,2.2 0,0 1.2,0.2 2.1,-0.6 0.9,-0.8 1,-2.3 1,-2.3"
   clip-path="url(#SVGID_6_)"
   id="path80"
   transform="matrix(-1,0,0,1,136.1,0)" /><path
   class="st9"
   d="m 93.6,59.6 c 0,0 -1.6,-0.3 -2.6,0.3 -0.9,0.6 -0.9,2.1 -0.9,2.1 0,0 1.2,0.3 2.2,-0.3 1,-0.7 1.3,-2.1 1.3,-2.1"
   clip-path="url(#SVGID_6_)"
   id="path81"
   transform="matrix(-1,0,0,1,136.1,0)" /><path
   class="st9"
   d="m 92.3,62.9 c 0,0 -1.6,-0.5 -2.6,-0.1 -1,0.5 -1.2,1.9 -1.2,1.9 0,0 1.1,0.5 2.2,0 1.1,-0.4 1.6,-1.8 1.6,-1.8"
   clip-path="url(#SVGID_6_)"
   id="path82"
   transform="matrix(-1,0,0,1,136.1,0)" /><path
   class="st9"
   d="m 89.7,66.4 c 0,0 -1.6,-0.5 -2.6,-0.1 -1,0.5 -1.2,1.9 -1.2,1.9 0,0 1.1,0.5 2.2,0 1.1,-0.5 1.6,-1.8 1.6,-1.8"
   clip-path="url(#SVGID_6_)"
   id="path83"
   transform="matrix(-1,0,0,1,136.1,0)" /><path
   class="st9"
   d="m 87.7,69.7 c 0,0 -1.4,-0.8 -2.5,-0.6 -1.1,0.2 -1.6,1.7 -1.6,1.7 0,0 1,0.7 2.2,0.5 1.1,-0.4 1.9,-1.6 1.9,-1.6"
   clip-path="url(#SVGID_6_)"
   id="path84"
   transform="matrix(-1,0,0,1,136.1,0)" /><path
   class="st9"
   d="m 85,72 c 0,0 -1.4,-0.8 -2.5,-0.6 -1.1,0.2 -1.6,1.7 -1.6,1.7 0,0 1,0.7 2.2,0.5 C 84.3,73.3 85,72 85,72"
   clip-path="url(#SVGID_6_)"
   id="path85"
   transform="matrix(-1,0,0,1,136.1,0)" /><path
   class="st9"
   d="m 85.6,57.8 c 0,0 -1.6,-0.2 -2.5,0.4 -0.9,0.6 -0.8,2.1 -0.8,2.1 0,0 1.2,0.3 2.2,-0.4 0.9,-0.6 1.1,-2.1 1.1,-2.1"
   clip-path="url(#SVGID_6_)"
   id="path86"
   transform="matrix(-1,0,0,1,136.1,0)" /><path
   class="st9"
   d="m 83.7,61.6 c 0,0 -1.6,-0.2 -2.5,0.4 -0.9,0.6 -0.8,2.1 -0.8,2.1 0,0 1.2,0.3 2.2,-0.4 0.9,-0.6 1.1,-2.1 1.1,-2.1"
   clip-path="url(#SVGID_6_)"
   id="path87"
   transform="matrix(-1,0,0,1,136.1,0)" /><path
   class="st9"
   d="m 81.1,66.1 c 0,0 -1.6,-0.5 -2.6,0 -1,0.5 -1.1,2 -1.1,2 0,0 1.1,0.5 2.2,-0.1 1.1,-0.5 1.5,-1.9 1.5,-1.9"
   clip-path="url(#SVGID_6_)"
   id="path88"
   transform="matrix(-1,0,0,1,136.1,0)" /><path
   class="st9"
   d="m 76.4,56.1 c 0,0 -1.6,0.3 -2.3,1.1 -0.7,0.9 -0.2,2.3 -0.2,2.3 0,0 1.2,-0.1 2,-1 0.7,-0.9 0.5,-2.4 0.5,-2.4"
   clip-path="url(#SVGID_6_)"
   id="path89"
   transform="matrix(-1,0,0,1,136.1,0)" /><path
   class="st9"
   d="m 75.7,60.3 c 0,0 -1.6,0.3 -2.3,1.1 -0.7,0.9 -0.2,2.3 -0.2,2.3 0,0 1.2,-0.1 2,-1 0.7,-0.9 0.5,-2.4 0.5,-2.4"
   clip-path="url(#SVGID_6_)"
   id="path90"
   transform="matrix(-1,0,0,1,136.1,0)" /><path
   class="st9"
   d="m 75.3,64.3 c 0,0 -1.6,0 -2.5,0.8 -0.8,0.8 -0.5,2.2 -0.5,2.2 0,0 1.2,0.1 2.1,-0.7 0.9,-0.9 0.9,-2.3 0.9,-2.3"
   clip-path="url(#SVGID_6_)"
   id="path91"
   transform="matrix(-1,0,0,1,136.1,0)" /><path
   class="st9"
   d="m 63.6,55.6 c 0,0 -1.6,0.5 -2.1,1.5 -0.5,1 0.2,2.3 0.2,2.3 0,0 1.2,-0.3 1.8,-1.3 0.6,-1.1 0.1,-2.5 0.1,-2.5"
   clip-path="url(#SVGID_6_)"
   id="path92"
   transform="matrix(-1,0,0,1,136.1,0)" /><path
   class="st9"
   d="m 63.9,59.7 c 0,0 -1.5,0.7 -1.9,1.7 -0.4,1 0.4,2.2 0.4,2.2 0,0 1.1,-0.4 1.6,-1.5 0.5,-1 -0.1,-2.4 -0.1,-2.4"
   clip-path="url(#SVGID_6_)"
   id="path93"
   transform="matrix(-1,0,0,1,136.1,0)" /><path
   class="st9"
   d="m 64.5,63.6 c 0,0 -1.6,0.5 -2.2,1.4 -0.6,1 0.1,2.3 0.1,2.3 0,0 1.2,-0.2 1.8,-1.3 0.7,-1 0.3,-2.4 0.3,-2.4"
   clip-path="url(#SVGID_6_)"
   id="path94"
   transform="matrix(-1,0,0,1,136.1,0)" /><path
   class="st9"
   d="m 68.6,44.1 c 0,0 1.6,0.5 2.1,1.5 0.6,1 -0.2,2.3 -0.2,2.3 0,0 -1.2,-0.3 -1.8,-1.3 -0.5,-1.1 -0.1,-2.5 -0.1,-2.5"
   clip-path="url(#SVGID_6_)"
   id="path95"
   transform="matrix(-1,0,0,1,136.1,0)" /><path
   class="st9"
   d="m 68.7,48.4 c 0,0 1.6,0.5 2.1,1.5 0.6,1 -0.2,2.3 -0.2,2.3 0,0 -1.2,-0.3 -1.8,-1.3 -0.6,-1.1 -0.1,-2.5 -0.1,-2.5"
   clip-path="url(#SVGID_6_)"
   id="path96"
   transform="matrix(-1,0,0,1,136.1,0)" /><path
   class="st9"
   d="m 68.5,52.3 c 0,0 1.6,0.3 2.3,1.1 0.7,0.9 0.2,2.3 0.2,2.3 0,0 -1.2,-0.1 -2,-1 -0.7,-0.9 -0.5,-2.4 -0.5,-2.4"
   clip-path="url(#SVGID_6_)"
   id="path97"
   transform="matrix(-1,0,0,1,136.1,0)" /><path
   class="st9"
   d="m 80.1,45.5 c 0,0 1.5,0.7 1.9,1.8 0.4,1 -0.5,2.2 -0.5,2.2 0,0 -1.1,-0.4 -1.6,-1.6 -0.5,-1.1 0.2,-2.4 0.2,-2.4"
   clip-path="url(#SVGID_6_)"
   id="path98"
   transform="matrix(-1,0,0,1,136.1,0)" /><path
   class="st9"
   d="m 79.4,49.7 c 0,0 1.5,0.7 1.9,1.8 0.4,1 -0.5,2.2 -0.5,2.2 0,0 -1.1,-0.4 -1.6,-1.6 -0.4,-1.1 0.2,-2.4 0.2,-2.4"
   clip-path="url(#SVGID_6_)"
   id="path99"
   transform="matrix(-1,0,0,1,136.1,0)" /><path
   class="st9"
   d="m 78.6,53.4 c 0,0 1.6,0.5 2.1,1.5 0.5,1 -0.2,2.3 -0.2,2.3 0,0 -1.2,-0.3 -1.8,-1.3 -0.5,-1.1 -0.1,-2.5 -0.1,-2.5"
   clip-path="url(#SVGID_6_)"
   id="path100"
   transform="matrix(-1,0,0,1,136.1,0)" /><path
   class="st9"
   d="m 89.5,50.4 c 0,0 1.2,1.1 1.4,2.2 0.1,1.1 -1.1,2 -1.1,2 0,0 -1,-0.7 -1.1,-1.9 -0.1,-1.2 0.8,-2.3 0.8,-2.3"
   clip-path="url(#SVGID_6_)"
   id="path101"
   transform="matrix(-1,0,0,1,136.1,0)" /><path
   class="st9"
   d="m 87.9,54.3 c 0,0 1.2,1.1 1.4,2.2 0.1,1.1 -1.1,2 -1.1,2 0,0 -1,-0.7 -1.1,-1.9 -0.2,-1.2 0.8,-2.3 0.8,-2.3"
   clip-path="url(#SVGID_6_)"
   id="path102"
   transform="matrix(-1,0,0,1,136.1,0)" /><path
   class="st9"
   d="m 86.2,57.9 c 0,0 1.4,0.9 1.7,2 0.3,1.1 -0.8,2.2 -0.8,2.2 0,0 -1.1,-0.6 -1.4,-1.7 -0.3,-1.3 0.5,-2.5 0.5,-2.5"
   clip-path="url(#SVGID_6_)"
   id="path103"
   transform="matrix(-1,0,0,1,136.1,0)" /><path
   class="st9"
   d="m 84.7,60.7 c 0,0 1.1,1.2 1.1,2.3 0,1.1 -1.3,1.9 -1.3,1.9 0,0 -0.9,-0.8 -0.9,-2 0.1,-1.2 1.1,-2.2 1.1,-2.2"
   clip-path="url(#SVGID_6_)"
   id="path104"
   transform="matrix(-1,0,0,1,136.1,0)" /><path
   class="st9"
   d="m 83.1,63.7 c 0,0 0.8,1.4 0.6,2.5 -0.2,1.1 -1.6,1.6 -1.6,1.6 0,0 -0.7,-1 -0.5,-2.2 0.2,-1.1 1.5,-1.9 1.5,-1.9"
   clip-path="url(#SVGID_6_)"
   id="path105"
   transform="matrix(-1,0,0,1,136.1,0)" /><path
   class="st9"
   d="m 78,56.5 c 0,0 1.4,0.9 1.7,1.9 0.3,1.1 -0.7,2.2 -0.7,2.2 0,0 -1.1,-0.5 -1.4,-1.7 -0.4,-1.2 0.4,-2.4 0.4,-2.4"
   clip-path="url(#SVGID_6_)"
   id="path106"
   transform="matrix(-1,0,0,1,136.1,0)" /><path
   class="st9"
   d="m 76.8,59.6 c 0,0 1.3,1 1.4,2.1 0.2,1.1 -1,2.1 -1,2.1 0,0 -1,-0.7 -1.2,-1.9 -0.2,-1.2 0.8,-2.3 0.8,-2.3"
   clip-path="url(#SVGID_6_)"
   id="path107"
   transform="matrix(-1,0,0,1,136.1,0)" /><path
   class="st9"
   d="m 68.6,55.9 c 0,0 1.5,0.5 2.1,1.5 0.5,1 -0.2,2.3 -0.2,2.3 0,0 -1.2,-0.3 -1.7,-1.4 -0.7,-1 -0.2,-2.4 -0.2,-2.4"
   clip-path="url(#SVGID_6_)"
   id="path108"
   transform="matrix(-1,0,0,1,136.1,0)" /><path
   class="st9"
   d="m 68.3,60 c 0,0 1.5,0.7 1.9,1.7 0.4,1 -0.5,2.2 -0.5,2.2 0,0 -1.1,-0.4 -1.6,-1.5 -0.4,-1 0.2,-2.4 0.2,-2.4"
   clip-path="url(#SVGID_6_)"
   id="path109"
   transform="matrix(-1,0,0,1,136.1,0)" /><path
   class="st9"
   d="m 67.6,63.9 c 0,0 1.6,0.5 2.1,1.4 0.6,1 -0.2,2.3 -0.2,2.3 0,0 -1.2,-0.2 -1.8,-1.3 -0.5,-1 -0.1,-2.4 -0.1,-2.4"
   clip-path="url(#SVGID_6_)"
   id="path110"
   transform="matrix(-1,0,0,1,136.1,0)" /><path
   class="st8"
   d="m 61.5,68.6 c 0,0 -1.8,-8.6 -1.7,-14.5 C 60,48.2 60.4,44 60.4,44"
   clip-path="url(#SVGID_6_)"
   id="path111"
   style="stroke-width:1.2;stroke-dasharray:none"
   transform="matrix(-1,0,0,1,136.1,0)" /><path
   class="st8"
   d="M 13,110.5 C 20.8,107.7 46.6,98.6 57.8,97.4"
   clip-path="url(#SVGID_6_)"
   id="path112"
   style="stroke-width:1.2;stroke-dasharray:none"
   transform="matrix(-1,0,0,1,136.1,0)" /><path
   class="st8"
   d="M 20.9,99.7 C 19.7,89.9 16.8,82.5 22.4,82.2"
   clip-path="url(#SVGID_6_)"
   id="path113"
   style="stroke-width:1.2;stroke-dasharray:none"
   transform="matrix(-1,0,0,1,136.1,0)" /><path
   class="st8"
   d="M 38.5,97.3 C 37.1,87.5 38,79.6 32.5,80.7"
   clip-path="url(#SVGID_6_)"
   id="path114"
   style="stroke-width:1.2;stroke-dasharray:none"
   transform="matrix(-1,0,0,1,136.1,0)" /><path
   class="st8"
   d="m 24.6,99.2 c -0.5,-3.9 -2.1,-5.2 4.3,-6 6.5,-0.8 5.4,1.1 5.9,4.7"
   clip-path="url(#SVGID_6_)"
   id="path115"
   style="stroke-width:1.2;stroke-dasharray:none"
   transform="matrix(-1,0,0,1,136.1,0)" /><path
   class="st8"
   d="m 20.7,74.4 c 1,-1.1 2.3,-1.5 2.7,0.6 1.8,9.2 -3,13.8 4.8,12.4 C 36.1,86 31.4,82.9 28,73.7"
   clip-path="url(#SVGID_6_)"
   id="path116"
   style="stroke-width:1.2;stroke-dasharray:none"
   transform="matrix(-1,0,0,1,136.1,0)" /><path
   class="st8"
   d="m 28.4,72.2 c 3,-0.2 3.7,2 1.6,2.5"
   clip-path="url(#SVGID_6_)"
   id="path117"
   style="stroke-width:1.2;stroke-dasharray:none"
   transform="matrix(-1,0,0,1,136.1,0)" /><path
   class="st8"
   d="m 25.5,86.4 c 0.1,-2.6 1.7,-2.3 2,-0.3"
   clip-path="url(#SVGID_6_)"
   id="path118"
   style="stroke-width:1.2;stroke-dasharray:none"
   transform="matrix(-1,0,0,1,136.1,0)" /><path
   class="st8"
   d="m 28.6,85.8 c 0.1,-2.6 1.7,-2.3 2,-0.3"
   clip-path="url(#SVGID_6_)"
   id="path119"
   style="stroke-width:1.2;stroke-dasharray:none"
   transform="matrix(-1,0,0,1,136.1,0)" /><path
   class="st8"
   d="m 26.5,94.2 c 0.6,1.9 1.5,1.9 2.6,1.8 0.8,-0.1 2.4,-1 2.1,-2.4"
   clip-path="url(#SVGID_6_)"
   id="path120"
   style="stroke-width:1.2;stroke-dasharray:none"
   transform="matrix(-1,0,0,1,136.1,0)" /><path
   class="st8"
   d="M 22.8,71.7 C 19,67 19,62.7 24.4,70.7"
   clip-path="url(#SVGID_6_)"
   id="path121"
   style="stroke-width:1.2;stroke-dasharray:none"
   transform="matrix(-1,0,0,1,136.1,0)" /><path
   class="st8"
   d="m 25.7,70 c 1.5,-5.8 5,-8.4 1.8,0.7"
   clip-path="url(#SVGID_6_)"
   id="path122"
   style="stroke-width:1.2;stroke-dasharray:none"
   transform="matrix(-1,0,0,1,136.1,0)" /><path
   class="st8"
   d="m 43.3,89.7 -2,0.3 c 0,0 -1.5,-2 -4.1,-2.7"
   clip-path="url(#SVGID_6_)"
   id="path123"
   style="stroke-width:1.2;stroke-dasharray:none"
   transform="matrix(-1,0,0,1,136.1,0)" /><polyline
   class="st8"
   points="42.9,92 41.2,90.2 40.8,92.8  "
   clip-path="url(#SVGID_6_)"
   id="polyline123"
   style="stroke-width:1.2;stroke-dasharray:none"
   transform="matrix(-1,0,0,1,136.1,0)" /><path
   class="st8"
   d="M 123.5,109.5 C 115.7,106.7 89.9,97.6 78.7,96.4"
   clip-path="url(#SVGID_6_)"
   id="path124"
   style="stroke-width:1.2;stroke-dasharray:none"
   transform="matrix(-1,0,0,1,136.1,0)" /><path
   class="st8"
   d="m 100.5,98.4 c 2.7,-18 9.6,-18.3 12.4,0"
   clip-path="url(#SVGID_6_)"
   id="path125"
   style="stroke-width:1.2;stroke-dasharray:none"
   transform="matrix(-1,0,0,1,136.1,0)" /><path
   class="st8"
   d="m 104.9,98.8 c 0.5,-7.3 3,-7.2 3.5,0"
   clip-path="url(#SVGID_6_)"
   id="path126"
   style="stroke-width:1.2;stroke-dasharray:none"
   transform="matrix(-1,0,0,1,136.1,0)" /><rect
   x="106.8"
   y="71.199997"
   transform="matrix(-0.7074,-0.7068,-0.7068,0.7074,154.1364,101.4095)"
   class="st8"
   width="13.2"
   height="2.5"
   clip-path="url(#SVGID_6_)"
   id="rect126"
   style="stroke-width:1.20001;stroke-dasharray:none" /><path
   class="st9"
   d="m 107.5,78.5 c 0.4,0.4 0.4,1.2 0,1.6 -0.4,0.4 -1.2,0.4 -1.6,0 -0.4,-0.4 -0.4,-1.2 0,-1.6 0.4,-0.5 1.1,-0.5 1.6,0"
   clip-path="url(#SVGID_6_)"
   id="path127"
   transform="matrix(-1,0,0,1,136.1,0)" /><rect
   x="93.300003"
   y="84.800003"
   transform="matrix(-0.7074,-0.7068,-0.7068,0.7074,167.7085,95.7813)"
   class="st8"
   width="13.2"
   height="2.5"
   clip-path="url(#SVGID_6_)"
   id="rect127"
   style="stroke-width:1.20001;stroke-dasharray:none" /><rect
   x="112.2"
   y="79.400002"
   transform="matrix(-0.7074,-0.7068,-0.7068,0.7074,163.734,105.3798)"
   class="st8"
   width="2.5"
   height="13.2"
   clip-path="url(#SVGID_6_)"
   id="rect128"
   style="stroke-width:1.20001;stroke-dasharray:none" /><rect
   x="98.599998"
   y="65.900002"
   transform="matrix(-0.7074,-0.7068,-0.7068,0.7074,158.1103,91.8019)"
   class="st8"
   width="2.5"
   height="13.2"
   clip-path="url(#SVGID_6_)"
   id="rect129"
   style="stroke-width:1.20001;stroke-dasharray:none" />
<polygon
   class="st1"
   points="5.5,42 5.5,114 68,150 130.5,114 130.5,42 68,6 "
   id="polygon129"
   transform="matrix(-1,0,0,1,136.1,0)" />
</svg>
