M48
; DRILL file KiCad 10.0.3 date 2026-06-01T10:50:17
; FORMAT={-:-/ absolute / metric / decimal}
; #@! TF.CreationDate,2026-06-01T10:50:17+02:00
; #@! TF.GenerationSoftware,Kicad,Pcbnew,10.0.3
; #@! TF.FileFunction,Plated,1,2,PTH
FMAT,2
METRIC
; #@! TA.AperFunction,Plated,PTH,ViaDrill
T1C0.300
; #@! TA.AperFunction,Plated,PTH,ComponentDrill
T2C0.500
; #@! TA.AperFunction,Plated,PTH,ComponentDrill
T3C0.700
; #@! TA.AperFunction,Plated,PTH,ComponentDrill
T4C0.762
; #@! TA.AperFunction,Plated,PTH,ComponentDrill
T5C0.787
; #@! TA.AperFunction,Plated,PTH,ComponentDrill
T6C0.800
; #@! TA.AperFunction,Plated,PTH,ViaDrill
T7C1.000
; #@! TA.AperFunction,Plated,PTH,ComponentDrill
T8C1.000
; #@! TA.AperFunction,Plated,PTH,ComponentDrill
T9C1.100
; #@! TA.AperFunction,Plated,PTH,ComponentDrill
T10C1.300
%
G90
G05
T1
X305.5Y-106.0
X306.0Y-109.0
T2
X169.934Y-195.82
X170.934Y-195.82
X171.934Y-195.82
X172.934Y-195.82
X173.934Y-195.82
X174.934Y-195.82
X175.934Y-195.82
X176.934Y-195.82
X177.934Y-195.82
X178.934Y-195.82
X179.934Y-195.82
X180.934Y-195.82
X181.934Y-195.82
X182.934Y-195.82
X183.934Y-195.82
X184.934Y-195.82
T3
X170.934Y-117.82
X178.554Y-117.82
X190.814Y-213.82
X198.434Y-213.82
X257.934Y-166.51
X257.934Y-174.13
T4
X135.814Y-185.01
X135.814Y-192.63
X151.054Y-185.01
X151.054Y-192.63
T5
X173.934Y-91.2
X173.934Y-98.82
X176.474Y-91.2
X176.474Y-98.82
X179.014Y-91.2
X179.014Y-98.82
X181.554Y-91.2
X181.554Y-98.82
X184.094Y-91.2
X184.094Y-98.82
X186.634Y-91.2
X186.634Y-98.82
X189.174Y-91.2
X189.174Y-98.82
T6
X119.934Y-95.32
X119.934Y-110.32
X119.934Y-116.82
X119.934Y-131.82
X119.934Y-135.82
X119.934Y-150.82
X126.434Y-181.82
X126.434Y-196.82
X129.934Y-95.32
X129.934Y-110.32
X132.124Y-121.93
X132.124Y-124.47
X132.124Y-127.01
X132.124Y-129.55
X132.124Y-132.09
X132.124Y-134.63
X132.124Y-137.17
X132.124Y-139.71
X137.434Y-88.32
X138.934Y-147.32
X139.744Y-121.93
X139.744Y-124.47
X139.744Y-127.01
X139.744Y-129.55
X139.744Y-132.09
X139.744Y-134.63
X139.744Y-137.17
X139.744Y-139.71
X139.934Y-95.32
X139.934Y-110.32
X147.654Y-154.82
X147.654Y-170.06
X150.194Y-154.82
X150.194Y-170.06
X152.434Y-88.32
X152.734Y-154.82
X152.734Y-170.06
X153.934Y-147.32
X155.274Y-154.82
X155.274Y-170.06
X157.694Y-123.08
X157.694Y-138.32
X157.814Y-154.82
X157.814Y-170.06
X160.234Y-123.08
X160.234Y-138.32
X160.354Y-154.82
X160.354Y-170.06
X162.774Y-123.08
X162.774Y-138.32
X162.894Y-154.82
X162.894Y-170.06
X165.314Y-123.08
X165.314Y-138.32
X165.434Y-154.82
X165.434Y-170.06
X167.854Y-123.08
X167.854Y-138.32
X167.974Y-154.82
X167.974Y-170.06
X170.394Y-123.08
X170.394Y-138.32
X170.514Y-154.82
X170.514Y-170.06
X172.434Y-112.32
X172.934Y-123.08
X172.934Y-138.32
X173.054Y-154.82
X173.054Y-170.06
X175.474Y-123.08
X175.474Y-138.32
X175.594Y-154.82
X175.594Y-170.06
X177.314Y-112.32
X177.934Y-79.82
X178.014Y-123.08
X178.014Y-138.32
X178.134Y-154.82
X178.134Y-170.06
X180.554Y-123.08
X180.554Y-138.32
X180.674Y-154.82
X180.674Y-170.06
X183.094Y-123.08
X183.094Y-138.32
X183.214Y-154.82
X183.214Y-170.06
X184.434Y-204.32
X184.934Y-112.32
X185.634Y-123.08
X185.634Y-138.32
X185.754Y-154.82
X185.754Y-170.06
X188.174Y-123.08
X188.174Y-138.32
X188.294Y-154.82
X188.294Y-170.06
X190.714Y-123.08
X190.714Y-138.32
X190.834Y-154.82
X190.834Y-170.06
X192.934Y-79.82
X193.374Y-154.82
X193.374Y-170.06
X195.914Y-154.82
X195.914Y-170.06
X198.934Y-176.32
X198.934Y-191.32
X199.434Y-204.32
X199.934Y-112.32
X214.434Y-192.32
X229.434Y-192.32
X233.434Y-200.82
X236.434Y-129.26
X236.434Y-131.8
X236.434Y-134.34
X236.434Y-136.88
X236.434Y-139.42
X236.434Y-141.96
X236.434Y-144.5
X236.434Y-147.04
X236.434Y-149.58
X236.434Y-152.12
X236.434Y-154.66
X236.434Y-157.2
X236.434Y-159.74
X236.434Y-162.28
X236.434Y-164.82
X236.434Y-167.36
X236.434Y-169.9
X236.434Y-172.44
X236.434Y-174.98
X236.434Y-177.52
X245.434Y-97.32
X248.434Y-200.82
X251.674Y-129.26
X251.674Y-131.8
X251.674Y-134.34
X251.674Y-136.88
X251.674Y-139.42
X251.674Y-141.96
X251.674Y-144.5
X251.674Y-147.04
X251.674Y-149.58
X251.674Y-152.12
X251.674Y-154.66
X251.674Y-157.2
X251.674Y-159.74
X251.674Y-162.28
X251.674Y-164.82
X251.674Y-167.36
X251.674Y-169.9
X251.674Y-172.44
X251.674Y-174.98
X251.674Y-177.52
X260.434Y-97.32
X273.924Y-92.2
X273.924Y-107.44
X276.464Y-92.2
X276.464Y-107.44
X279.004Y-92.2
X279.004Y-107.44
X281.544Y-92.2
X281.544Y-107.44
X284.084Y-92.2
X284.084Y-107.44
X286.624Y-92.2
X286.624Y-107.44
X287.314Y-144.8
X287.314Y-147.34
X287.314Y-149.88
X287.314Y-152.42
X287.314Y-154.96
X287.314Y-157.5
X287.314Y-160.04
X287.314Y-162.58
X287.314Y-165.12
X287.314Y-167.66
X287.314Y-170.2
X287.314Y-172.74
X287.314Y-175.28
X287.314Y-177.82
X289.164Y-92.2
X289.164Y-107.44
X291.704Y-92.2
X291.704Y-107.44
X294.244Y-92.2
X294.244Y-107.44
X296.784Y-92.2
X296.784Y-107.44
X299.324Y-92.2
X299.324Y-107.44
X301.864Y-92.2
X301.864Y-107.44
X302.554Y-144.8
X302.554Y-147.34
X302.554Y-149.88
X302.554Y-152.42
X302.554Y-154.96
X302.554Y-157.5
X302.554Y-160.04
X302.554Y-162.58
X302.554Y-165.12
X302.554Y-167.66
X302.554Y-170.2
X302.554Y-172.74
X302.554Y-175.28
X302.554Y-177.82
X303.934Y-134.82
X304.404Y-92.2
X304.404Y-107.44
X306.944Y-92.2
X306.944Y-107.44
X318.934Y-134.82
T7
X119.0Y-113.5
X126.0Y-117.5
X127.5Y-140.0
X135.0Y-125.5
X135.0Y-139.5
X140.5Y-82.5
X146.5Y-128.5
X147.0Y-140.0
X151.5Y-82.5
X151.5Y-137.0
X152.0Y-123.5
X157.0Y-127.0
X160.5Y-143.5
X161.0Y-141.0
X161.5Y-107.0
X161.754Y-84.783
X162.0Y-87.5
X162.0Y-148.0
X166.0Y-120.5
X172.0Y-86.5
X178.0Y-94.0
X187.5Y-96.5
X188.5Y-101.5
X189.5Y-148.0
X190.0Y-86.0
X191.0Y-185.0
X193.434Y-94.32
X201.934Y-124.82
X204.934Y-124.82
X205.5Y-178.0
X207.434Y-124.82
X210.434Y-124.82
X212.434Y-160.63
X213.934Y-125.47
X214.0Y-151.5
X215.254Y-183.783
X216.0Y-149.5
X216.934Y-116.82
X216.934Y-126.97
X219.0Y-168.5
X219.934Y-116.32
X219.934Y-126.97
X221.254Y-173.283
X221.434Y-105.82
X222.0Y-159.0
X222.934Y-107.32
X222.934Y-116.32
X222.934Y-126.97
X226.5Y-116.5
X226.5Y-173.5
X227.5Y-128.0
X228.5Y-97.5
X229.0Y-137.0
X231.0Y-164.0
X232.5Y-170.0
X234.0Y-208.0
X236.0Y-192.5
X238.5Y-134.0
X239.5Y-140.5
X240.5Y-110.0
X241.0Y-85.5
X241.934Y-191.82
X242.5Y-100.5
X244.5Y-129.5
X244.5Y-208.5
X247.5Y-79.0
X249.0Y-148.0
X249.5Y-131.5
X252.5Y-91.5
X252.5Y-116.5
X253.934Y-192.47
X254.5Y-110.0
X255.434Y-179.32
X256.254Y-91.783
X256.5Y-115.5
X257.5Y-86.0
X257.5Y-177.0
X257.754Y-179.67
X258.934Y-190.82
X262.254Y-85.783
X263.0Y-191.5
X264.434Y-188.97
X269.038Y-109.09
X269.434Y-115.195
X270.754Y-99.283
X272.301Y-116.12
X275.704Y-114.47
X277.354Y-112.82
X280.0Y-99.5
X281.5Y-178.0
X288.476Y-127.362
X291.934Y-130.15
X297.5Y-82.0
X298.5Y-133.5
X299.0Y-184.0
X301.0Y-86.0
X303.0Y-184.5
X303.5Y-90.0
X305.5Y-100.5
X306.0Y-171.0
X306.5Y-120.0
X308.754Y-165.283
X310.5Y-171.5
X311.0Y-184.5
X315.0Y-91.5
X316.0Y-120.0
T8
X155.394Y-81.26
X156.779Y-78.72
X158.164Y-81.26
X159.549Y-78.72
X160.934Y-81.26
X162.319Y-78.72
X163.704Y-81.26
X165.089Y-78.72
X166.474Y-81.26
T9
X196.354Y-144.32
X196.354Y-149.32
X206.514Y-144.32
X206.514Y-149.32
T10
X166.934Y-211.82
X171.934Y-209.32
X176.934Y-211.82
X216.434Y-201.07
X216.434Y-213.57
X221.434Y-201.07
X221.434Y-213.57
T8
X127.234Y-81.32G85X127.234Y-79.32
G05
X130.934Y-77.32G85X132.934Y-77.32
G05
X130.684Y-83.32G85X133.184Y-83.32
G05
M30
